<?xml version="1.0" standalone="no"?>
<!DOCTYPE svg PUBLIC "-//W3C//DTD SVG 20010904//EN"
 "http://www.w3.org/TR/2001/REC-SVG-20010904/DTD/svg10.dtd">
<svg version="1.0" xmlns="http://www.w3.org/2000/svg"
 width="664.000000pt" height="376.000000pt" viewBox="0 0 664.000000 376.000000"
 preserveAspectRatio="xMidYMid meet">

<g transform="translate(0.000000,376.000000) scale(0.100000,-0.100000)"
fill="#000000" stroke="none">
<path d="M3035 3678 c-514 -58 -996 -365 -1274 -811 -44 -71 -137 -256 -158
-316 -10 -27 -16 -32 -30 -26 -10 4 -29 10 -43 12 -15 3 -33 17 -42 34 -25 44
-59 55 -115 40 -40 -10 -48 -10 -55 4 -13 23 -65 46 -96 43 -15 -1 -46 1 -70
6 -36 7 -51 4 -96 -18 -35 -17 -70 -26 -102 -26 -27 0 -76 -7 -109 -15 -33 -8
-79 -14 -102 -15 -226 -2 -424 -177 -463 -410 -15 -89 3 -216 44 -301 67 -143
220 -254 366 -266 38 -3 70 -9 70 -12 0 -3 -46 -33 -101 -66 -55 -33 -147 -95
-203 -137 -124 -93 -416 -388 -416 -419 0 -29 107 -137 190 -193 181 -122 407
-186 890 -254 l195 -28 43 -121 c24 -67 50 -124 58 -127 8 -3 139 -6 291 -7
219 0 278 2 289 13 8 7 17 41 22 76 5 34 11 64 14 67 3 3 49 -21 104 -52 257
-148 558 -251 874 -299 176 -28 514 -25 680 5 289 51 556 159 740 297 57 44
76 53 82 43 5 -8 23 -39 41 -69 30 -51 36 -56 77 -62 72 -11 495 7 547 23 36
11 44 29 63 135 l13 71 136 16 c625 77 980 183 1147 344 90 86 76 125 -107
311 -137 138 -213 203 -354 303 l-117 82 68 32 c166 79 279 216 319 389 54
230 -47 457 -247 551 -83 39 -135 48 -396 65 -102 7 -188 18 -208 26 -39 17
-75 10 -100 -17 -17 -19 -18 -19 -43 5 -14 14 -38 28 -53 31 -23 6 -34 1 -63
-28 -30 -30 -41 -35 -69 -30 -45 7 -89 -18 -110 -62 -9 -19 -20 -35 -24 -35
-4 0 -31 46 -59 103 -246 484 -684 861 -1183 1017 -258 80 -508 106 -755 78z
m165 -52 c0 -2 -15 -6 -34 -8 -19 -2 -32 0 -30 4 5 8 64 12 64 4z m43 -3 c-7
-2 -19 -2 -25 0 -7 3 -2 5 12 5 14 0 19 -2 13 -5z m44 1 c-3 -3 -12 -4 -19 -1
-8 3 -5 6 6 6 11 1 17 -2 13 -5z m93 -4 c10 -6 2 -7 -25 -3 -49 7 -58 13 -19
13 16 0 36 -5 44 -10z m63 -7 c-7 -2 -19 -2 -25 0 -7 3 -2 5 12 5 14 0 19 -2
13 -5z m-460 -10 c-7 -2 -19 -2 -25 0 -7 3 -2 5 12 5 14 0 19 -2 13 -5z m537
-2 c0 -5 -9 -11 -20 -14 -11 -3 -18 -1 -15 3 3 5 -3 11 -12 13 -10 3 -3 5 15
6 17 0 32 -3 32 -8z m-597 -8 c-7 -2 -19 -2 -25 0 -7 3 -2 5 12 5 14 0 19 -2
13 -5z m655 0 c-10 -2 -26 -2 -35 0 -10 3 -2 5 17 5 19 0 27 -2 18 -5z m-701
-9 c-3 -3 -12 -4 -19 -1 -8 3 -5 6 6 6 11 1 17 -2 13 -5z m-40 -10 c-3 -3 -12
-4 -19 -1 -8 3 -5 6 6 6 11 1 17 -2 13 -5z m848 -4 c13 -5 14 -9 5 -9 -8 0
-24 4 -35 9 -13 5 -14 9 -5 9 8 0 24 -4 35 -9z m-918 -16 c-3 -3 -12 -4 -19
-1 -8 3 -5 6 6 6 11 1 17 -2 13 -5z m388 -14 c-3 -5 -25 -9 -48 -9 l-42 2 40
7 c22 4 44 8 48 9 5 0 5 -3 2 -9z m153 3 c-15 -2 -42 -2 -60 0 -18 2 -6 4 27
4 33 0 48 -2 33 -4z m171 -9 c8 -7 -64 -3 -104 6 -31 7 -24 7 30 3 39 -3 72
-7 74 -9z m288 10 c-3 -3 -12 -4 -19 -1 -8 3 -5 6 6 6 11 1 17 -2 13 -5z
m-714 -21 c-7 -2 -21 -2 -30 0 -10 3 -4 5 12 5 17 0 24 -2 18 -5z m494 1 c-3
-3 -12 -4 -19 -1 -8 3 -5 6 6 6 11 1 17 -2 13 -5z m-560 -10 c-3 -3 -12 -4
-19 -1 -8 3 -5 6 6 6 11 1 17 -2 13 -5z m-92 -14 c3 -5 -1 -10 -10 -10 -9 0
-13 5 -10 10 3 6 8 10 10 10 2 0 7 -4 10 -10z m48 3 c-7 -2 -19 -2 -25 0 -7 3
-2 5 12 5 14 0 19 -2 13 -5z m957 -3 c8 -5 11 -10 5 -10 -5 0 -17 5 -25 10 -8
5 -10 10 -5 10 6 0 17 -5 25 -10z m50 -20 c8 -5 11 -10 5 -10 -5 0 -17 5 -25
10 -8 5 -10 10 -5 10 6 0 17 -5 25 -10z m-1153 -16 c-3 -3 -12 -4 -19 -1 -8 3
-5 6 6 6 11 1 17 -2 13 -5z m784 -23 c533 -116 948 -485 1167 -1036 55 -138
107 -303 99 -311 -9 -9 -168 -40 -335 -64 -107 -16 -136 -18 -152 -8 -11 7
-20 16 -20 19 0 4 26 24 58 45 31 20 58 38 60 39 4 3 -114 177 -138 202 -11
12 -26 25 -34 30 -20 12 -31 53 -14 53 23 0 48 66 46 123 l-1 52 -6 -55 c-5
-48 -9 -55 -26 -52 -11 2 -34 6 -52 9 -32 5 -32 5 -18 34 8 15 15 34 14 41 0
10 -2 10 -6 0 -8 -21 -94 -59 -215 -96 -149 -45 -165 -52 -177 -73 -7 -14 -12
-15 -22 -6 -9 9 -6 19 15 43 14 17 26 37 26 45 0 7 14 15 32 19 l31 6 -21 23
c-23 25 -43 85 -23 73 6 -4 12 -19 12 -34 1 -15 3 -20 5 -12 3 8 19 23 36 33
l32 18 -32 21 c-36 23 -33 41 14 76 31 22 26 38 -16 47 -16 4 -32 11 -36 16
-3 5 10 33 29 62 19 29 33 56 30 60 -5 8 -67 3 -120 -10 -22 -5 -23 -2 -23 47
0 57 -26 160 -41 160 -5 0 -26 -27 -46 -60 -21 -33 -41 -60 -45 -60 -5 0 -8
12 -9 28 0 15 -6 43 -13 62 -12 34 -14 35 -82 41 -170 15 -340 -22 -372 -82
-20 -37 -9 -185 17 -220 l21 -28 -84 -75 c-46 -42 -90 -76 -98 -76 -8 0 -19
-5 -26 -12 -9 -9 -12 -2 -12 34 0 26 5 50 11 53 13 9 2 64 -18 86 -8 10 -18
55 -23 108 -11 104 -17 118 -61 155 -27 23 -39 26 -102 26 -104 -1 -248 -16
-278 -30 -33 -15 -49 -48 -49 -99 0 -37 14 -127 26 -165 4 -11 -47 29 -113 90
-65 60 -137 123 -158 141 l-40 31 40 42 c58 60 161 134 287 206 163 93 305
143 508 180 114 20 418 12 541 -15z m234 14 c39 -17 21 -18 -25 0 -19 7 -28
14 -20 14 8 0 29 -6 45 -14z m202 -11 c-6 -6 -47 9 -47 17 0 5 11 3 25 -3 14
-6 24 -13 22 -14z m-1307 -8 c0 -2 -7 -7 -16 -10 -8 -3 -12 -2 -9 4 6 10 25
14 25 6z m1345 -6 c3 -6 -1 -7 -9 -4 -18 7 -21 14 -7 14 6 0 13 -4 16 -10z
m-1388 -16 c-3 -3 -12 -4 -19 -1 -8 3 -5 6 6 6 11 1 17 -2 13 -5z m1468 -32
c-3 -3 -11 0 -18 7 -9 10 -8 11 6 5 10 -3 15 -9 12 -12z m-120 -12 c3 -6 -1
-7 -9 -4 -18 7 -21 14 -7 14 6 0 13 -4 16 -10z m55 -36 c0 -2 -9 0 -20 6 -11
6 -20 13 -20 16 0 2 9 0 20 -6 11 -6 20 -13 20 -16z m-1560 10 c0 -2 -9 -8
-20 -14 -15 -8 -18 -8 -14 3 4 11 34 21 34 11z m-220 -8 c0 -2 -8 -10 -17 -17
-16 -13 -17 -12 -4 4 13 16 21 21 21 13z m1935 -6 c3 -6 -1 -7 -9 -4 -18 7
-21 14 -7 14 6 0 13 -4 16 -10z m-55 -56 c8 -9 -3 -4 -25 10 -51 35 -57 42
-19 23 17 -9 37 -23 44 -33z m-1920 32 c0 -2 -8 -10 -17 -17 -16 -13 -17 -12
-4 4 13 16 21 21 21 13z m180 -10 c0 -2 -12 -11 -27 -20 l-28 -17 24 20 c23
21 31 25 31 17z m1880 -28 c0 -12 -6 -9 -26 13 -19 22 -19 22 4 8 12 -8 22
-17 22 -21z m-2160 -41 c0 -2 -10 -12 -22 -23 l-23 -19 19 23 c18 21 26 27 26
19z m2275 -47 c3 -5 1 -10 -4 -10 -6 0 -11 5 -11 10 0 6 2 10 4 10 3 0 8 -4
11 -10z m-2165 -14 c0 -2 -7 -7 -16 -10 -8 -3 -12 -2 -9 4 6 10 25 14 25 6z
m2215 -26 c10 -11 16 -20 13 -20 -3 0 -13 9 -23 20 -10 11 -16 20 -13 20 3 0
13 -9 23 -20z m-2255 -4 c0 -2 -8 -10 -17 -17 -16 -13 -17 -12 -4 4 13 16 21
21 21 13z m2175 -46 c10 -11 16 -20 13 -20 -3 0 -13 9 -23 20 -10 11 -16 20
-13 20 3 0 13 -9 23 -20z m166 -37 c13 -16 12 -17 -3 -4 -17 13 -22 21 -14 21
2 0 10 -8 17 -17z m-781 -52 c6 -27 10 -69 9 -92 -2 -23 1 -44 7 -46 5 -2 38
1 72 5 34 5 62 6 62 3 0 -14 -32 -51 -39 -46 -5 2 -17 -5 -27 -18 l-19 -22 23
19 c25 22 30 10 7 -20 -21 -28 -19 -32 25 -45 22 -7 40 -15 40 -18 0 -3 -16
-22 -36 -42 l-37 -38 33 -19 c30 -19 31 -21 13 -31 -17 -8 -23 -5 -40 17 -11
15 -23 47 -27 72 -22 141 -63 190 -161 190 -99 0 -156 -52 -163 -150 -2 -31 1
-73 7 -95 7 -26 7 -43 1 -49 -6 -6 -10 -22 -10 -36 0 -24 -3 -26 -30 -22 l-30
4 20 28 c11 16 20 33 20 39 0 5 -21 19 -46 31 l-47 20 42 30 c22 17 41 36 40
43 0 6 -25 33 -55 60 -59 51 -59 52 30 62 66 8 64 2 32 118 -9 32 -16 60 -16
63 0 7 103 -46 137 -72 17 -13 34 -24 36 -24 3 0 26 31 52 70 27 38 51 67 56
65 4 -3 12 -27 19 -54z m710 -14 c-3 -2 -20 15 -39 37 l-35 41 39 -37 c22 -21
37 -39 35 -41z m125 13 c10 -11 16 -20 13 -20 -3 0 -13 9 -23 20 -10 11 -16
20 -13 20 3 0 13 -9 23 -20z m-2371 -19 c41 -43 23 -58 -24 -20 -38 30 -44 49
-16 49 7 0 25 -13 40 -29z m97 -156 c98 -98 148 -155 145 -165 -2 -8 -11 -33
-20 -56 -8 -23 -16 -75 -17 -117 -1 -43 -7 -81 -13 -85 -24 -19 -138 -35 -204
-28 -122 12 -117 12 -116 -7 1 -10 -7 -19 -21 -23 -29 -7 -39 -65 -16 -89 13
-13 20 -12 58 10 34 21 59 26 135 30 51 3 111 9 133 14 22 6 41 8 44 6 2 -3 6
-46 9 -98 l5 -93 -49 -19 c-27 -10 -85 -36 -129 -58 l-79 -39 -166 21 c-91 12
-201 28 -245 35 l-80 12 2 40 c4 104 153 454 269 632 89 137 166 232 187 229
9 -1 85 -69 168 -152z m-441 122 c0 -7 -9 -18 -21 -25 -21 -13 -21 -13 -3 12
22 29 24 31 24 13z m150 9 c0 -2 -8 -10 -17 -17 -16 -13 -17 -12 -4 4 13 16
21 21 21 13z m2635 -36 c10 -11 16 -20 13 -20 -3 0 -13 9 -23 20 -10 11 -16
20 -13 20 3 0 13 -9 23 -20z m-2685 -24 c0 -2 -8 -10 -17 -17 -16 -13 -17 -12
-4 4 13 16 21 21 21 13z m1343 -33 c-4 -11 -3 -14 5 -9 8 5 12 0 12 -13 0 -13
-15 -31 -40 -47 -22 -15 -74 -69 -115 -120 -84 -105 -109 -124 -124 -97 -8 15
8 35 94 118 61 59 106 112 110 128 4 15 14 27 21 27 8 0 17 7 20 15 4 8 10 15
15 15 4 0 5 -7 2 -17z m1397 -13 c12 -16 19 -30 16 -30 -2 0 -14 14 -26 30
-12 17 -19 30 -16 30 2 0 14 -13 26 -30z m-2782 -10 c-7 -10 -14 -17 -17 -15
-4 4 18 35 25 35 2 0 -1 -9 -8 -20z m1792 10 c12 -8 10 -10 -11 -10 -42 0
-113 -28 -152 -61 -32 -26 -37 -36 -37 -71 0 -51 22 -78 65 -78 34 0 60 21 67
55 4 15 10 9 27 -29 24 -55 22 -94 -4 -60 -8 10 -15 14 -15 8 0 -17 28 -37 41
-29 7 5 9 21 6 41 -5 31 -3 34 19 34 28 0 64 32 64 57 0 29 8 9 18 -45 9 -48
8 -52 -8 -47 -10 3 -21 1 -25 -4 -3 -6 0 -8 8 -5 8 3 20 -2 27 -11 16 -19 17
-82 2 -97 -6 -6 -8 -16 -6 -23 6 -14 -48 -75 -67 -75 -7 0 -5 6 7 14 10 8 16
18 12 22 -4 4 6 22 23 41 24 28 29 43 27 71 -3 42 -22 51 -67 31 -19 -8 -27
-18 -24 -28 4 -14 4 -14 -6 -1 -9 12 -13 13 -20 2 -7 -11 -9 -11 -14 1 -3 9
-26 18 -58 22 -47 7 -55 5 -71 -15 -16 -19 -16 -25 -4 -48 22 -42 63 -75 95
-76 16 -1 27 -4 24 -8 -2 -5 4 -9 14 -9 10 -1 2 -5 -17 -9 l-35 -7 43 -2 c27
0 41 3 37 9 -3 6 1 13 9 16 9 3 13 11 9 17 -3 6 -1 7 6 3 17 -11 -25 -66 -50
-66 -27 0 -85 25 -94 41 -6 9 -3 10 10 5 15 -5 16 -4 5 9 -7 8 -19 15 -26 15
-8 0 -14 5 -14 11 0 6 -9 22 -20 36 -33 42 -24 81 20 96 8 2 3 3 -12 1 -24 -3
-28 1 -38 34 -27 98 1 188 67 215 43 18 120 22 143 7z m860 -21 c15 -28 5 -23
-15 7 -9 15 -12 23 -6 20 6 -4 16 -16 21 -27z m-1728 -6 c43 -17 44 -19 23
-40 -22 -21 -17 -83 6 -83 26 0 32 -17 12 -29 -17 -10 -17 -10 -1 -11 10 0 22
9 28 21 6 11 19 19 28 17 9 -1 24 2 32 7 13 8 13 7 1 -8 -7 -9 -17 -14 -22
-11 -5 3 -9 1 -9 -5 0 -5 5 -13 11 -17 8 -4 9 -25 5 -62 l-7 -56 24 22 c30 28
41 28 57 -3 16 -30 10 -38 -73 -102 -42 -33 -62 -42 -69 -35 -8 8 -8 15 0 25
7 8 8 18 4 22 -4 5 -2 5 4 2 15 -9 48 29 38 44 -4 8 -3 10 4 5 14 -9 15 13 2
34 -7 12 -11 8 -16 -18 -4 -18 -16 -39 -28 -47 -32 -23 -38 -18 -11 10 15 14
25 35 25 52 -1 84 -121 119 -250 74 -59 -21 -80 -42 -80 -79 0 -20 -4 -23 -32
-20 -39 4 -49 33 -21 63 12 12 17 30 15 51 -5 40 40 136 74 159 71 46 142 52
226 18z m-1062 10 c0 -5 -10 -19 -21 -33 l-20 -25 16 33 c15 30 25 41 25 25z
m1944 -12 c3 -4 -15 -11 -41 -15 -26 -3 -71 -20 -101 -37 -64 -36 -81 -32 -23
6 66 44 152 68 165 46z m41 -32 c18 -34 15 -48 -5 -24 -28 33 -110 7 -110 -35
0 -15 -5 -13 -29 9 -29 26 -29 26 -7 38 11 6 42 15 68 18 27 4 50 11 54 16 8
14 12 11 29 -22z m-809 -24 c9 -14 14 -32 10 -40 -6 -17 -46 -21 -46 -5 0 6
-5 10 -11 10 -6 0 -8 -7 -5 -16 6 -15 4 -15 -16 -2 -45 30 -30 78 23 78 19 0
34 -8 45 -25z m1799 5 c3 -5 1 -10 -4 -10 -6 0 -11 5 -11 10 0 6 2 10 4 10 3
0 8 -4 11 -10z m-1467 -23 c3 -12 -4 -17 -23 -17 -23 0 -25 2 -15 21 13 23 33
21 38 -4z m466 7 c20 -19 21 -58 2 -73 -14 -12 -84 -35 -73 -25 3 4 0 13 -8
21 -18 17 -20 64 -3 81 17 17 64 15 82 -4z m-142 -21 c20 -18 24 -63 6 -81
-15 -15 -53 -16 -79 -2 -27 15 -25 63 4 83 29 21 46 21 69 0z m1178 -14 c15
-28 5 -23 -15 7 -9 15 -12 23 -6 20 6 -4 16 -16 21 -27z m-3085 -17 c-15 -16
-16 -15 -4 12 7 15 15 23 17 16 3 -7 -3 -19 -13 -28z m2959 -28 c3 -8 2 -12
-4 -9 -6 3 -10 10 -10 16 0 14 7 11 14 -7z m-2993 -41 c-12 -20 -14 -14 -5 12
4 9 9 14 11 11 3 -2 0 -13 -6 -23z m3017 -8 c-3 -3 -9 2 -12 12 -6 14 -5 15 5
6 7 -7 10 -15 7 -18z m-1563 -197 l7 -156 -61 -4 -60 -3 -5 45 c-3 25 -7 72
-8 105 l-2 60 59 57 c33 31 60 56 61 55 1 -1 5 -72 9 -159z m1593 137 c-3 -3
-9 2 -12 12 -6 14 -5 15 5 6 7 -7 10 -15 7 -18z m-3062 -25 c15 0 19 -26 5
-34 -5 -3 -12 4 -15 17 l-7 22 -9 -22 c-15 -36 -19 -26 -7 14 7 23 13 31 15
20 2 -9 10 -17 18 -17z m1847 -8 c4 -21 3 -31 -3 -27 -6 3 -10 20 -10 37 0 38
5 34 13 -10z m-2519 1 l17 -28 -20 23 c-20 23 -58 32 -45 10 5 -8 1 -8 -12 2
-10 8 -21 16 -23 17 -2 2 12 3 31 3 28 0 39 -6 52 -27z m760 14 c-3 -8 -11
-14 -19 -14 -21 0 -19 15 3 20 9 3 18 5 19 6 1 0 0 -5 -3 -12z m3839 -4 c-7
-2 -21 -2 -30 0 -10 3 -4 5 12 5 17 0 24 -2 18 -5z m-4826 -38 c9 -20 8 -25
-3 -25 -8 0 -14 -6 -14 -12 0 -7 -10 2 -22 19 -24 34 -42 44 -32 18 4 -10 0
-15 -15 -15 -13 0 -21 -7 -22 -17 -1 -17 -2 -17 -6 0 -2 9 -9 17 -14 17 -6 0
-7 5 -4 10 3 6 -1 10 -9 10 -20 0 -36 -31 -36 -69 0 -17 -4 -31 -10 -31 -5 0
-10 16 -10 36 0 36 -1 36 -32 31 l-33 -6 30 16 c44 24 113 42 170 42 44 1 51
-2 62 -24z m223 0 c13 -14 21 -25 18 -25 -2 0 -15 11 -28 25 -13 14 -21 25
-18 25 2 0 15 -11 28 -25z m3175 -4 c-20 -40 -34 -47 -50 -25 -12 17 -10 21
18 36 45 24 50 22 32 -11z m-1545 -2 c19 -18 172 -34 217 -23 19 5 24 4 18 -6
-6 -9 -1 -10 16 -5 34 10 14 -7 -24 -22 l-32 -13 34 6 34 6 -8 -93 c-6 -88
-14 -109 -40 -109 -5 0 -31 41 -57 90 l-48 90 28 0 c15 0 32 4 39 8 6 4 -22 7
-63 7 -42 1 -79 6 -85 12 -9 9 -7 11 8 7 12 -3 24 -1 27 5 5 7 -3 11 -21 11
-16 0 -35 6 -41 13 -7 6 -18 12 -24 12 -6 0 -13 6 -16 13 -5 16 17 11 38 -9z
m1230 11 c0 -5 -5 -10 -11 -10 -5 0 -7 5 -4 10 3 6 8 10 11 10 2 0 4 -4 4 -10z
m1915 0 c-3 -5 -2 -10 3 -10 5 0 21 -11 35 -24 14 -13 30 -26 36 -27 9 -4 131
-118 131 -123 0 -1 -20 -3 -45 -5 -44 -2 -45 -1 -45 28 0 61 -1 61 -135 61
-89 0 -125 3 -128 13 -3 7 -6 5 -6 -5 -1 -23 -21 -23 -21 -1 0 16 -2 16 -15 2
-16 -15 -11 -49 6 -49 5 0 9 -11 9 -26 0 -24 -2 -25 -47 -22 -36 2 -47 7 -45
18 1 8 -6 4 -17 -10 -14 -18 -16 -27 -8 -32 8 -5 6 -8 -6 -8 -11 0 -15 -4 -11
-12 4 -7 3 -8 -4 -4 -7 4 -12 3 -12 -3 0 -15 18 -23 25 -11 11 18 35 11 35
-10 0 -11 -7 -20 -16 -20 -11 0 -14 -6 -9 -20 4 -11 2 -20 -4 -20 -6 0 -11 9
-11 20 0 13 -7 20 -19 20 -22 0 -36 -29 -21 -44 13 -13 13 -46 0 -46 -6 0 -10
-46 -10 -119 0 -69 -4 -122 -10 -126 -17 -11 -11 -27 8 -21 13 4 19 1 19 -9 0
-39 -46 1 -57 50 -16 69 -8 231 11 219 5 -3 6 2 3 11 -10 25 61 158 115 217
57 62 166 131 194 122 13 -4 17 -2 13 5 -4 6 7 14 26 20 18 5 34 10 36 10 2 1
0 -3 -3 -9z m-819 -77 c-5 -5 -36 62 -36 76 1 3 10 -11 21 -32 11 -22 18 -41
15 -44z m-1451 17 c-17 -33 -12 -36 25 -15 36 21 43 18 25 -9 -9 -13 -27 -27
-40 -30 -13 -3 -52 -31 -87 -61 -61 -53 -65 -55 -120 -55 -32 0 -58 2 -58 4 0
10 193 165 223 180 45 22 50 20 32 -14z m50 21 c3 -6 -3 -15 -14 -20 -29 -16
-33 -14 -19 9 14 22 24 25 33 11z m514 -62 c-11 -22 29 -101 59 -115 13 -7 35
-37 51 -71 16 -32 48 -83 73 -114 l44 -54 -90 45 c-50 25 -141 61 -202 80
l-112 34 -5 39 c-3 23 -18 55 -37 78 -17 22 -30 47 -28 56 2 12 37 28 118 53
l115 36 11 -25 c6 -15 8 -33 3 -42z m174 60 c29 -15 28 -14 21 -32 -5 -13 -8
-14 -22 -1 -9 7 -26 20 -37 28 -18 14 -19 15 -2 16 10 0 28 -5 40 -11z m-3749
-21 c-16 -18 -16 -20 -2 -15 20 7 26 -13 20 -70 -4 -42 -5 -43 -42 -43 -41 0
-50 -11 -50 -61 0 -27 -3 -29 -39 -29 -33 0 -39 -4 -43 -24 -3 -13 -1 -31 4
-40 6 -10 5 -16 -1 -16 -5 0 -11 -21 -13 -47 -3 -38 -6 -44 -13 -29 -10 24 8
142 30 188 8 18 13 24 10 13 -5 -20 -5 -20 10 -1 18 23 20 40 4 30 -30 -18 42
84 86 122 54 48 69 56 39 22z m1131 2 c3 -5 1 -10 -4 -10 -6 0 -11 5 -11 10 0
6 2 10 4 10 3 0 8 -4 11 -10z m2583 -2 c13 -18 24 -90 15 -104 -12 -17 -49
-34 -75 -34 -22 0 -68 54 -68 79 0 13 81 69 101 70 9 1 21 -5 27 -11z m-3390
-29 c-3 -8 -7 -3 -11 10 -4 17 -3 21 5 13 5 -5 8 -16 6 -23z m882 -15 c-10
-21 -19 -35 -20 -31 0 13 32 78 36 74 2 -2 -5 -21 -16 -43z m2020 42 c0 -3 -4
-8 -10 -11 -5 -3 -10 -1 -10 4 0 6 5 11 10 11 6 0 10 -2 10 -4z m1757 -17 c1
-14 -3 -19 -12 -15 -8 3 -17 1 -20 -4 -4 -6 -1 -10 6 -10 7 0 10 -3 6 -6 -3
-3 -11 -3 -17 1 -8 5 -4 15 11 31 12 13 23 24 24 24 0 0 1 -9 2 -21z m-2759
-98 c34 -57 61 -105 60 -106 -6 -5 -143 -33 -146 -30 -5 4 23 134 33 159 7 15
4 17 -11 13 -10 -3 -45 -8 -76 -12 -52 -6 -58 -5 -58 12 0 11 -5 24 -11 30 -9
9 1 16 37 27 93 29 101 24 172 -93z m867 52 c-8 -111 -15 -124 -56 -103 -24
14 -24 32 1 55 11 10 20 29 20 43 0 21 24 62 36 62 2 0 1 -26 -1 -57z m1226
21 c5 -15 8 -29 5 -31 -2 -2 -8 10 -14 26 -13 38 -5 41 9 5z m-3710 -1 c13
-16 12 -17 -3 -4 -10 7 -18 15 -18 17 0 8 8 3 21 -13z m2584 -33 c24 0 25 -3
25 -54 0 -30 -3 -57 -7 -59 -5 -3 -32 -2 -60 0 l-53 6 0 37 c0 21 3 51 6 68 6
31 7 31 35 17 15 -8 39 -15 54 -15z m-1181 4 c4 -9 5 -18 4 -19 -15 -13 -165
-39 -248 -44 -83 -5 -113 -11 -142 -28 -21 -12 -39 -18 -39 -13 -3 20 -4 25
-12 38 -6 9 1 16 23 23 21 8 29 16 26 26 -5 12 0 13 27 6 47 -12 194 -6 252
10 70 20 102 20 109 1z m1236 -4 c0 -5 -4 -10 -10 -10 -5 0 -10 5 -10 10 0 6
5 10 10 10 6 0 10 -4 10 -10z m34 -54 c-3 -8 -17 -22 -30 -31 -24 -15 -24 -15
-24 16 0 18 7 41 17 51 16 17 17 17 30 -1 7 -11 10 -26 7 -35z m1646 30 c0
-11 -19 -15 -25 -6 -3 5 1 10 9 10 9 0 16 -2 16 -4z m-4207 -36 c3 -11 1 -18
-4 -14 -5 3 -9 12 -9 20 0 20 7 17 13 -6z m3116 -65 c0 -11 -12 -47 -27 -80
l-28 -59 -23 38 -24 38 29 70 28 70 23 -28 c13 -16 23 -38 22 -49z m-868 45
l24 -19 -32 -1 c-47 0 -66 9 -52 26 16 19 33 18 60 -6z m-2598 -20 c3 -11 2
-20 -3 -20 -8 0 -20 24 -20 41 0 17 17 1 23 -21z m788 3 c-12 -20 -14 -14 -5
12 4 9 9 14 11 11 3 -2 0 -13 -6 -23z m-393 -18 c-3 -3 -9 2 -12 12 -6 14 -5
15 5 6 7 -7 10 -15 7 -18z m3772 -10 c0 -5 -5 -3 -10 5 -5 8 -10 20 -10 25 0
6 5 3 10 -5 5 -8 10 -19 10 -25z m-152 -55 c0 -8 -6 1 -13 20 -7 19 -13 42
-13 50 0 8 6 -1 13 -20 7 -19 13 -42 13 -50z m-1058 55 c0 -10 -10 -15 -27
-15 l-28 1 25 14 c31 18 30 18 30 0z m-2189 -31 c-5 -16 -10 -21 -10 -12 -1
18 10 51 15 45 2 -1 -1 -16 -5 -33z m-332 -13 c18 -38 18 -39 0 -28 -10 6 -16
13 -14 15 2 2 0 15 -5 28 -15 38 -2 28 19 -15z m258 17 c-3 -8 -6 -5 -6 6 -1
11 2 17 5 13 3 -3 4 -12 1 -19z m3480 -10 c-3 -8 -6 -5 -6 6 -1 11 2 17 5 13
3 -3 4 -12 1 -19z m-4174 -73 c4 -39 3 -54 -3 -45 -9 14 -15 119 -6 109 2 -2
6 -31 9 -64z m334 8 c-3 -10 -5 -4 -5 12 0 17 2 24 5 18 2 -7 2 -21 0 -30z
m4130 5 c-3 -8 -6 -5 -6 6 -1 11 2 17 5 13 3 -3 4 -12 1 -19z m-3970 -20 c-3
-8 -6 -5 -6 6 -1 11 2 17 5 13 3 -3 4 -12 1 -19z m3854 -1 c-10 -9 -11 -8 -5
6 3 10 9 15 12 12 3 -3 0 -11 -7 -18z m106 -19 c-3 -8 -6 -5 -6 6 -1 11 2 17
5 13 3 -3 4 -12 1 -19z m-4120 -25 c-3 -10 -5 -4 -5 12 0 17 2 24 5 18 2 -7 2
-21 0 -30z m330 5 c-3 -7 -5 -2 -5 12 0 14 2 19 5 13 2 -7 2 -19 0 -25z m-152
2 c10 -11 16 -20 13 -20 -3 0 -13 9 -23 20 -10 11 -16 20 -13 20 3 0 13 -9 23
-20z m222 -12 c-3 -7 -5 -2 -5 12 0 14 2 19 5 13 2 -7 2 -19 0 -25z m3576 4
c-10 -10 -20 -14 -22 -9 -2 5 3 13 10 18 24 15 30 10 12 -9z m924 -4 c-3 -8
-6 -5 -6 6 -1 11 2 17 5 13 3 -3 4 -12 1 -19z m-5238 -46 c0 -24 -1 -25 -9 -7
-12 28 -12 47 0 40 6 -3 10 -18 9 -33z m575 11 c-9 -37 -18 -45 -12 -11 4 19
0 28 -11 31 -10 3 -8 5 7 6 20 1 22 -2 16 -26z m83 5 c-3 -8 -6 -5 -6 6 -1 11
2 17 5 13 3 -3 4 -12 1 -19z m-320 -66 c-15 -19 -16 -11 -9 38 l6 45 6 -35 c3
-19 2 -41 -3 -48z m390 56 c-3 -8 -6 -5 -6 6 -1 11 2 17 5 13 3 -3 4 -12 1
-19z m3720 -70 c-2 -18 -4 -4 -4 32 0 36 2 50 4 33 2 -18 2 -48 0 -65z m-4971
67 c-3 -8 -1 -15 5 -15 6 0 7 -4 4 -10 -11 -18 -25 -10 -25 15 0 14 5 25 11
25 6 0 9 -7 5 -15z m5761 -37 c-2 -13 -4 -5 -4 17 -1 22 1 32 4 23 2 -10 2
-28 0 -40z m-1220 26 c-3 -3 -12 -4 -19 -1 -8 3 -5 6 6 6 11 1 17 -2 13 -5z
m-3209 -11 c-10 -2 -28 -2 -40 0 -13 2 -5 4 17 4 22 1 32 -1 23 -4z m-153 -12
c3 -5 1 -12 -5 -16 -5 -3 -10 1 -10 9 0 18 6 21 15 7z m216 0 c-8 -5 -20 -7
-28 -4 -21 8 -15 13 15 13 20 0 23 -3 13 -9z m3079 -35 c0 -12 -5 -7 -19 24
-11 24 -11 24 3 6 9 -11 16 -24 16 -30z m-3023 28 c-3 -3 -12 -4 -19 -1 -8 3
-5 6 6 6 11 1 17 -2 13 -5z m-1437 -44 c6 -23 17 -40 25 -40 9 0 12 -6 9 -15
-4 -9 3 -24 16 -35 12 -10 19 -24 15 -29 -3 -6 0 -8 8 -5 8 3 27 -6 42 -20 23
-21 38 -26 80 -26 l52 0 6 -41 c3 -23 11 -46 19 -50 29 -19 -18 -8 -67 15 -98
45 -196 162 -219 259 -10 42 2 32 14 -13z m1067 8 c-3 -7 -5 -2 -5 12 0 14 2
19 5 13 2 -7 2 -19 0 -25z m3153 12 c-14 -4 -41 -8 -60 -8 l-35 1 40 7 c57 10
87 10 55 0z m530 -10 c0 -13 -6 -20 -17 -19 -11 0 -13 3 -5 6 6 2 12 11 12 19
0 8 2 14 5 14 3 0 5 -9 5 -20z m98 -13 c12 -3 10 -5 -5 -6 -18 -1 -23 4 -22
22 1 15 3 17 6 5 2 -9 12 -19 21 -21z m-3431 -14 c-3 -10 -5 -4 -5 12 0 17 2
24 5 18 2 -7 2 -21 0 -30z m246 30 c-7 -2 -19 -2 -25 0 -7 3 -2 5 12 5 14 0
19 -2 13 -5z m4074 -25 c-3 -7 -5 -2 -5 12 0 14 2 19 5 13 2 -7 2 -19 0 -25z
m-4014 15 c-7 -2 -21 -2 -30 0 -10 3 -4 5 12 5 17 0 24 -2 18 -5z m2390 0 c-7
-2 -19 -2 -25 0 -7 3 -2 5 12 5 14 0 19 -2 13 -5z m108 -25 c-3 -21 -6 -26 -9
-15 -3 17 3 47 11 47 2 0 1 -15 -2 -32z m-2398 15 c-7 -2 -21 -2 -30 0 -10 3
-4 5 12 5 17 0 24 -2 18 -5z m2214 1 c-3 -3 -12 -4 -19 -1 -8 3 -5 6 6 6 11 1
17 -2 13 -5z m-2840 -10 c-3 -3 -12 -4 -19 -1 -8 3 -5 6 6 6 11 1 17 -2 13 -5z
m791 -11 c-10 -2 -28 -2 -40 0 -13 2 -5 4 17 4 22 1 32 -1 23 -4z m1892 3 c0
-2 -7 -6 -15 -10 -8 -3 -15 -1 -15 4 0 6 7 10 15 10 8 0 15 -2 15 -4z m777 -2
c-3 -3 -12 -4 -19 -1 -8 3 -5 6 6 6 11 1 17 -2 13 -5z m-3846 -31 c-12 -20
-14 -14 -5 12 4 9 9 14 11 11 3 -2 0 -13 -6 -23z m189 23 c0 -2 -7 -7 -16 -10
-8 -3 -12 -2 -9 4 6 10 25 14 25 6z m303 -3 c-7 -2 -19 -2 -25 0 -7 3 -2 5 12
5 14 0 19 -2 13 -5z m800 0 c-13 -2 -33 -2 -45 0 -13 2 -3 4 22 4 25 0 35 -2
23 -4z m1702 -3 c-8 -13 -35 -13 -55 0 -11 7 -5 10 23 10 23 0 36 -4 32 -10z
m790 0 c-16 -4 -39 -8 -50 -8 -16 0 -15 2 5 8 14 4 36 8 50 8 22 0 22 -1 -5
-8z m375 -2 c0 -11 -12 -10 -30 2 -12 7 -10 9 8 7 12 0 22 -5 22 -9z m-3603
-4 c-3 -3 -12 -4 -19 -1 -8 3 -5 6 6 6 11 1 17 -2 13 -5z m877 -2 c2 -4 -12
-6 -32 -4 -56 5 -62 10 -15 11 23 1 44 -3 47 -7z m1401 -2 c-28 -12 -37 -12
-30 0 3 6 16 10 28 9 21 0 21 -1 2 -9z m52 4 c-3 -3 -12 -4 -19 -1 -8 3 -5 6
6 6 11 1 17 -2 13 -5z m-2747 -14 c-8 -5 -19 -10 -25 -10 -5 0 -3 5 5 10 8 5
20 10 25 10 6 0 3 -5 -5 -10z m457 4 c-3 -3 -12 -4 -19 -1 -8 3 -5 6 6 6 11 1
17 -2 13 -5z m901 -1 c-10 -2 -26 -2 -35 0 -10 3 -2 5 17 5 19 0 27 -2 18 -5z
m105 0 c-13 -2 -35 -2 -50 0 -16 2 -5 4 22 4 28 0 40 -2 28 -4z m1100 0 c-13
-2 -33 -2 -45 0 -13 2 -3 4 22 4 25 0 35 -2 23 -4z m1004 1 c-3 -3 -12 -4 -19
-1 -8 3 -5 6 6 6 11 1 17 -2 13 -5z m-2040 -10 c-3 -3 -12 -4 -19 -1 -8 3 -5
6 6 6 11 1 17 -2 13 -5z m96 -1 c-13 -2 -35 -2 -50 0 -16 2 -5 4 22 4 28 0 40
-2 28 -4z m90 0 c-7 -2 -19 -2 -25 0 -7 3 -2 5 12 5 14 0 19 -2 13 -5z m745 1
c-7 -7 -169 -7 -176 1 -3 3 37 5 88 5 51 0 91 -3 88 -6z m949 -16 c-3 -8 -6
-5 -6 6 -1 11 2 17 5 13 3 -3 4 -12 1 -19z m-3447 7 c0 -7 -30 -13 -34 -7 -3
4 4 9 15 9 10 1 19 0 19 -2z m318 -17 c67 -12 122 -25 122 -28 0 -3 -37 -24
-82 -45 -87 -42 -278 -166 -394 -255 -179 -139 -245 -197 -463 -408 -133 -130
-253 -238 -280 -252 -86 -47 -207 -21 -343 73 l-58 40 70 77 c258 286 516 462
1045 710 127 60 237 109 245 109 8 1 70 -9 138 -21z m1572 12 c0 -5 -7 -7 -15
-4 -8 4 -15 8 -15 10 0 2 7 4 15 4 8 0 15 -4 15 -10z m137 -67 c-2 -16 -4 -3
-4 27 0 30 2 43 4 28 2 -16 2 -40 0 -55z m132 70 c-11 -3 -15 -13 -13 -31 2
-17 1 -20 -2 -7 -4 11 -11 26 -16 33 -8 9 -4 12 18 11 16 -1 22 -3 13 -6z m58
1 c-3 -3 -12 -4 -19 -1 -8 3 -5 6 6 6 11 1 17 -2 13 -5z m1774 -20 c216 -78
426 -190 687 -367 196 -133 312 -229 451 -372 l104 -106 -38 -39 c-43 -44
-129 -93 -193 -110 -63 -16 -102 0 -186 79 -39 37 -115 102 -169 145 -54 43
-139 114 -190 158 -132 115 -237 191 -544 398 -150 101 -273 186 -273 189 0
10 179 48 232 50 28 1 75 -9 119 -25z m-2811 6 c0 -5 -4 -10 -10 -10 -5 0 -10
5 -10 10 0 6 5 10 10 10 6 0 10 -4 10 -10z m-1220 -4 c0 -2 -7 -7 -16 -10 -8
-3 -12 -2 -9 4 6 10 25 14 25 6z m3370 -6 c0 -5 -8 -10 -17 -10 -15 0 -16 2
-3 10 19 12 20 12 20 0z m937 -25 c49 -3 52 -5 47 -18 -5 -14 -2 -15 119 -23
l87 -6 0 -49 c0 -54 -6 -58 -50 -31 -24 15 -27 21 -17 32 10 12 9 12 -5 1 -13
-10 -22 -10 -39 -1 -18 10 -19 14 -8 22 11 8 10 9 -4 4 -18 -6 -116 37 -128
56 -3 5 -9 9 -13 8 -4 -1 -20 4 -37 10 -22 10 -27 15 -17 21 8 6 18 3 25 -8 7
-9 25 -17 40 -18z m-4384 11 c4 -10 1 -13 -8 -9 -8 3 -12 9 -9 14 7 12 11 11
17 -5z m954 8 c-3 -3 -12 -4 -19 -1 -8 3 -5 6 6 6 11 1 17 -2 13 -5z m91 -11
c-10 -2 -28 -2 -40 0 -13 2 -5 4 17 4 22 1 32 -1 23 -4z m2287 -4 c-22 -4 -51
-8 -65 -7 -35 1 34 15 75 16 25 0 23 -2 -10 -9z m-2207 -6 c-10 -2 -26 -2 -35
0 -10 3 -2 5 17 5 19 0 27 -2 18 -5z m2037 -2 c6 -11 -62 -27 -72 -17 -4 3 3
6 15 6 12 0 22 5 22 10 0 13 27 13 35 1z m-3535 -16 c0 -8 -4 -15 -10 -15 -5
0 -7 7 -4 15 4 8 8 15 10 15 2 0 4 -7 4 -15z m1080 6 c28 -8 55 14 -245 -191
-248 -168 -407 -293 -553 -435 -139 -134 -278 -297 -301 -353 -7 -18 -18 -32
-22 -32 -17 0 -169 54 -168 59 1 3 110 111 243 239 365 353 657 569 926 688
81 35 83 35 120 25z m497 3 c-3 -3 -12 -4 -19 -1 -8 3 -5 6 6 6 11 1 17 -2 13
-5z m2021 -1 c-10 -2 -26 -2 -35 0 -10 3 -2 5 17 5 19 0 27 -2 18 -5z m554
-50 c46 -31 178 -120 293 -197 259 -174 337 -232 473 -349 59 -51 148 -125
197 -164 50 -39 109 -91 133 -115 l43 -44 -93 -37 c-52 -20 -98 -37 -104 -37
-6 0 -16 12 -23 27 -21 46 -105 145 -182 214 -234 211 -747 607 -912 703 -26
16 -46 30 -44 33 5 5 85 20 114 22 12 1 60 -25 105 -56z m-2449 40 c-13 -2
-33 -2 -45 0 -13 2 -3 4 22 4 25 0 35 -2 23 -4z m939 -15 c-7 -7 -12 -8 -12
-2 0 14 12 26 19 19 2 -3 -1 -11 -7 -17z m-1322 -12 c249 -34 585 -62 874 -75
142 -6 190 -12 197 -22 11 -18 11 -35 -1 -429 -16 -504 -27 -590 -88 -661
l-36 -41 -85 6 c-80 6 -1125 68 -1376 81 -209 11 -719 76 -756 96 -22 11 -39
40 -39 65 0 61 270 354 495 535 194 157 658 472 684 465 9 -3 68 -12 131 -20z
m488 17 c-10 -2 -28 -2 -40 0 -13 2 -5 4 17 4 22 1 32 -1 23 -4z m1589 1 c-3
-3 -12 -4 -19 -1 -8 3 -5 6 6 6 11 1 17 -2 13 -5z m-1464 -11 c-13 -2 -35 -2
-50 0 -16 2 -5 4 22 4 28 0 40 -2 28 -4z m1345 0 c-16 -2 -40 -2 -55 0 -16 2
-3 4 27 4 30 0 43 -2 28 -4z m-1140 -10 c-15 -2 -42 -2 -60 0 -18 2 -6 4 27 4
33 0 48 -2 33 -4z m767 -3 c-4 -6 -44 -9 -93 -8 l-87 2 90 6 c50 3 91 7 93 8
2 1 0 -2 -3 -8z m243 3 c-16 -2 -40 -2 -55 0 -16 2 -3 4 27 4 30 0 43 -2 28
-4z m793 -31 c206 -121 728 -526 947 -735 85 -81 127 -134 153 -191 20 -45 20
-49 3 -67 -9 -10 -33 -23 -53 -29 -48 -12 -325 -38 -546 -50 -342 -18 -613
-40 -960 -76 -82 -9 -280 -18 -440 -21 l-290 -5 -29 23 c-61 49 -72 118 -81
534 -4 165 -10 359 -15 430 -4 72 -7 131 -6 131 0 1 132 7 291 13 304 12 535
31 745 61 191 27 205 26 281 -18z m-1568 21 c-24 -2 -62 -2 -85 0 -24 2 -5 4
42 4 47 0 66 -2 43 -4z m580 0 c-7 -2 -19 -2 -25 0 -7 3 -2 5 12 5 14 0 19 -2
13 -5z m-3018 -63 c-12 -23 -22 -30 -43 -29 -15 0 -21 3 -14 6 6 2 9 10 5 15
-4 7 2 9 16 5 15 -3 24 1 31 14 6 10 13 19 16 19 2 0 -2 -13 -11 -30z m2645
-16 c6 -7 18 -254 29 -634 6 -173 14 -333 20 -355 5 -22 9 -41 7 -42 -1 -1
-60 -6 -131 -9 -109 -6 -128 -5 -123 7 26 67 46 378 53 809 2 129 4 237 4 239
1 4 135 -10 141 -15z m2540 -8 c0 -8 -9 -18 -21 -21 -21 -7 -21 -26 1 -33 7
-3 10 0 6 7 -4 6 0 11 10 11 13 0 14 -3 4 -15 -16 -19 -20 -19 -50 6 -14 11
-19 18 -12 14 6 -3 12 -1 12 4 0 6 7 11 15 11 8 0 15 5 15 10 0 6 -16 10 -35
10 -19 0 -35 -4 -35 -10 0 -5 8 -7 18 -4 13 5 14 4 3 -4 -19 -13 -41 -4 -34
14 7 20 103 20 103 0z m597 -754 c-25 -28 -107 -85 -107 -74 0 5 22 23 50 41
27 18 52 36 55 42 4 5 9 9 12 9 3 0 -1 -8 -10 -18z m-351 -93 c3 -6 -5 -3 -20
6 -14 10 -26 19 -26 22 0 7 39 -17 46 -28z m234 10 c0 -5 -4 -7 -10 -4 -5 3
-10 1 -10 -5 0 -6 -5 -8 -11 -4 -8 4 -7 9 2 15 19 12 29 11 29 -2z m-5810 -41
c10 -6 7 -7 -10 -1 -14 4 -36 7 -49 6 -18 -1 -20 1 -10 8 14 9 42 4 69 -13z
m5659 6 c10 -9 -45 -3 -59 6 -11 7 -5 8 20 4 19 -4 37 -8 39 -10z m81 12 c0
-2 -7 -6 -15 -10 -8 -3 -15 -1 -15 4 0 6 7 10 15 10 8 0 15 -2 15 -4z m-5833
-22 c-3 -3 -12 -4 -19 -1 -8 3 -5 6 6 6 11 1 17 -2 13 -5z m-67 -14 c-19 -5
-41 -5 -48 -1 -8 4 7 8 35 8 46 1 47 1 13 -7z m5875 0 c-3 -5 -12 -10 -18 -10
-7 0 -6 4 3 10 19 12 23 12 15 0z m-384 -12 c-6 -7 -22 -26 -37 -43 -26 -30
-26 -30 -5 -1 12 16 21 35 21 42 0 8 7 14 15 14 11 0 13 -4 6 -12z m-5216 -8
c13 -6 15 -9 5 -9 -8 0 -22 4 -30 9 -18 12 -2 12 25 0z m5500 -10 c-3 -5 -12
-10 -18 -10 -7 0 -6 4 3 10 19 12 23 12 15 0z m-5718 -6 c-3 -3 -12 -4 -19 -1
-8 3 -5 6 6 6 11 1 17 -2 13 -5z m294 -11 c13 -17 13 -17 -6 -3 -11 8 -22 16
-24 17 -2 2 0 3 6 3 6 0 17 -8 24 -17z m5350 -11 c-7 -2 -18 1 -23 6 -8 8 -4
9 13 5 13 -4 18 -8 10 -11z m-5574 2 c-3 -3 -12 -4 -19 -1 -8 3 -5 6 6 6 11 1
17 -2 13 -5z m58 -14 c13 -5 14 -9 5 -9 -8 0 -24 4 -35 9 -13 5 -14 9 -5 9 8
0 24 -4 35 -9z m5452 -6 c-3 -3 -12 -4 -19 -1 -8 3 -5 6 6 6 11 1 17 -2 13 -5z
m-44 -11 c-7 -2 -19 -2 -25 0 -7 3 -2 5 12 5 14 0 19 -2 13 -5z m-5306 -9 c-3
-3 -12 -4 -19 -1 -8 3 -5 6 6 6 11 1 17 -2 13 -5z m133 -4 c8 -5 11 -10 5 -10
-5 0 -17 5 -25 10 -8 5 -10 10 -5 10 6 0 17 -5 25 -10z m4990 7 c0 -2 -9 -12
-21 -23 -15 -14 -20 -15 -17 -4 2 8 10 18 18 22 19 8 20 9 20 5z m137 -3 c-3
-3 -12 -4 -19 -1 -8 3 -5 6 6 6 11 1 17 -2 13 -5z m-80 -20 c-3 -3 -12 -4 -19
-1 -8 3 -5 6 6 6 11 1 17 -2 13 -5z m-5044 -11 c-7 -2 -19 -2 -25 0 -7 3 -2 5
12 5 14 0 19 -2 13 -5z m141 -2 c3 -4 -6 -6 -19 -3 -14 2 -25 6 -25 8 0 8 39
4 44 -5z m4706 5 c0 -2 -9 -6 -20 -9 -11 -3 -18 -1 -14 4 5 9 34 13 34 5z
m-4793 -12 c-3 -3 -12 -4 -19 -1 -8 3 -5 6 6 6 11 1 17 -2 13 -5z m156 -1 c-7
-2 -21 -2 -30 0 -10 3 -4 5 12 5 17 0 24 -2 18 -5z m4530 0 c-13 -2 -35 -2
-50 0 -16 2 -5 4 22 4 28 0 40 -2 28 -4z m194 1 c-3 -3 -12 -4 -19 -1 -8 3 -5
6 6 6 11 1 17 -2 13 -5z m-4810 -10 c-3 -3 -12 -4 -19 -1 -8 3 -5 6 6 6 11 1
17 -2 13 -5z m186 -1 c-13 -2 -35 -2 -50 0 -16 2 -5 4 22 4 28 0 40 -2 28 -4z
m4330 0 c-13 -2 -35 -2 -50 0 -16 2 -5 4 22 4 28 0 40 -2 28 -4z m230 0 c-7
-2 -19 -2 -25 0 -7 3 -2 5 12 5 14 0 19 -2 13 -5z m-4696 -9 c-3 -3 -12 -4
-19 -1 -8 3 -5 6 6 6 11 1 17 -2 13 -5z m200 0 c-3 -3 -12 -4 -19 -1 -8 3 -5
6 6 6 11 1 17 -2 13 -5z m4070 0 c-3 -3 -12 -4 -19 -1 -8 3 -5 6 6 6 11 1 17
-2 13 -5z m50 0 c-3 -3 -12 -4 -19 -1 -8 3 -5 6 6 6 11 1 17 -2 13 -5z m330 0
c-3 -3 -12 -4 -19 -1 -8 3 -5 6 6 6 11 1 17 -2 13 -5z m-4522 -14 c19 -5 6 -6
-35 -3 -36 3 -67 7 -69 9 -8 7 73 2 104 -6z m169 4 c20 -8 21 -34 1 -34 -8 0
-15 5 -15 10 0 6 -10 15 -22 20 l-23 9 22 0 c12 1 28 -2 37 -5z m3881 -4 c-4
-6 -15 -8 -26 -5 -14 5 -17 3 -13 -9 3 -9 1 -16 -5 -16 -6 0 -11 7 -11 16 0
14 -8 15 -47 11 -33 -4 -40 -3 -23 3 37 12 133 12 125 0z m388 3 c-7 -2 -19
-2 -25 0 -7 3 -2 5 12 5 14 0 19 -2 13 -5z m-570 -10 c-13 -2 -35 -2 -50 0
-16 2 -5 4 22 4 28 0 40 -2 28 -4z m510 0 c-13 -2 -33 -2 -45 0 -13 2 -3 4 22
4 25 0 35 -2 23 -4z m-4296 -9 c-3 -3 -12 -4 -19 -1 -8 3 -5 6 6 6 11 1 17 -2
13 -5z m271 -1 c-16 -2 -40 -2 -55 0 -16 2 -3 4 27 4 30 0 43 -2 28 -4z m1956
-1 c3 -5 -1 -9 -9 -9 -8 0 -12 4 -9 9 3 4 7 8 9 8 2 0 6 -4 9 -8z m1394 1
c-10 -2 -28 -2 -40 0 -13 2 -5 4 17 4 22 1 32 -1 23 -4z m65 0 c-7 -2 -19 -2
-25 0 -7 3 -2 5 12 5 14 0 19 -2 13 -5z m-3285 -10 c-10 -2 -28 -2 -40 0 -13
2 -5 4 17 4 22 1 32 -1 23 -4z m59 1 c-3 -3 -12 -4 -19 -1 -8 3 -5 6 6 6 11 1
17 -2 13 -5z m1572 2 c-10 -8 -119 -14 -114 -5 4 5 31 9 62 9 31 0 54 -2 52
-4z m68 -2 c-3 -3 -12 -4 -19 -1 -8 3 -5 6 6 6 11 1 17 -2 13 -5z m1431 -1
c-10 -2 -26 -2 -35 0 -10 3 -2 5 17 5 19 0 27 -2 18 -5z m610 0 c-10 -2 -26
-2 -35 0 -10 3 -2 5 17 5 19 0 27 -2 18 -5z m-3980 -10 c-10 -2 -26 -2 -35 0
-10 3 -2 5 17 5 19 0 27 -2 18 -5z m425 0 c-7 -2 -19 -2 -25 0 -7 3 -2 5 12 5
14 0 19 -2 13 -5z m2790 0 c-7 -2 -21 -2 -30 0 -10 3 -4 5 12 5 17 0 24 -2 18
-5z m685 0 c-10 -2 -26 -2 -35 0 -10 3 -2 5 17 5 19 0 27 -2 18 -5z m-3785
-10 c-13 -2 -33 -2 -45 0 -13 2 -3 4 22 4 25 0 35 -2 23 -4z m475 0 c-16 -2
-40 -2 -55 0 -16 2 -3 4 27 4 30 0 43 -2 28 -4z m2510 0 c-10 -2 -28 -2 -40 0
-13 2 -5 4 17 4 22 1 32 -1 23 -4z m710 0 c-10 -2 -26 -2 -35 0 -10 3 -2 5 17
5 19 0 27 -2 18 -5z m-3611 -9 c-3 -3 -12 -4 -19 -1 -8 3 -5 6 6 6 11 1 17 -2
13 -5z m617 -2 c2 -4 -12 -6 -32 -4 -62 6 -69 10 -20 11 26 0 49 -3 52 -7z
m1291 -2 c3 -6 -1 -7 -9 -4 -18 7 -21 14 -7 14 6 0 13 -4 16 -10z m852 4 c-3
-3 -12 -4 -19 -1 -8 3 -5 6 6 6 11 1 17 -2 13 -5z m50 0 c-3 -3 -12 -4 -19 -1
-8 3 -5 6 6 6 11 1 17 -2 13 -5z m701 -1 c-10 -2 -26 -2 -35 0 -10 3 -2 5 17
5 19 0 27 -2 18 -5z m-3405 -10 c-7 -2 -21 -2 -30 0 -10 3 -4 5 12 5 17 0 24
-2 18 -5z m655 0 c-21 -2 -55 -2 -75 0 -21 2 -4 4 37 4 41 0 58 -2 38 -4z
m1950 0 c-10 -2 -28 -2 -40 0 -13 2 -5 4 17 4 22 1 32 -1 23 -4z m679 1 c-3
-3 -12 -4 -19 -1 -8 3 -5 6 6 6 11 1 17 -2 13 -5z m-3149 -11 c-16 -2 -40 -2
-55 0 -16 2 -3 4 27 4 30 0 43 -2 28 -4z m640 0 c-10 -2 -26 -2 -35 0 -10 3
-2 5 17 5 19 0 27 -2 18 -5z m1725 0 c-7 -2 -21 -2 -30 0 -10 3 -4 5 12 5 17
0 24 -2 18 -5z m696 3 c-2 -2 -42 -6 -89 -9 -49 -3 -70 -2 -50 3 36 8 147 13
139 6z m-2946 -13 c-13 -2 -33 -2 -45 0 -13 2 -3 4 22 4 25 0 35 -2 23 -4z
m725 0 c-10 -2 -26 -2 -35 0 -10 3 -2 5 17 5 19 0 27 -2 18 -5z m1292 -9 c0
-2 -24 -4 -52 -3 -38 1 -46 3 -28 8 24 7 80 3 80 -5z m83 9 c-13 -2 -33 -2
-45 0 -13 2 -3 4 22 4 25 0 35 -2 23 -4z m582 -3 c-3 -5 -25 -9 -48 -8 l-42 1
45 7 c25 4 46 8 48 8 2 1 0 -2 -3 -8z m72 4 c-3 -3 -12 -4 -19 -1 -8 3 -5 6 6
6 11 1 17 -2 13 -5z m-2569 -11 c-16 -2 -40 -2 -55 0 -16 2 -3 4 27 4 30 0 43
-2 28 -4z m751 2 c-8 -7 -108 -9 -116 -2 -3 4 22 7 57 7 35 0 61 -2 59 -5z
m819 -2 c-21 -2 -57 -2 -80 0 -24 2 -7 4 37 4 44 0 63 -2 43 -4z m-1420 -10
c-15 -2 -42 -2 -60 0 -18 2 -6 4 27 4 33 0 48 -2 33 -4z m287 -8 c6 -2 -14 -4
-43 -4 -29 -1 -51 3 -48 7 4 7 67 5 91 -3z m413 8 c-10 -2 -28 -2 -40 0 -13 2
-5 4 17 4 22 1 32 -1 23 -4z m80 0 c-10 -2 -28 -2 -40 0 -13 2 -5 4 17 4 22 1
32 -1 23 -4z m1092 -3 c0 -5 -5 -10 -11 -10 -5 0 -7 5 -4 10 3 6 8 10 11 10 2
0 4 -4 4 -10z m243 3 c-13 -2 -35 -2 -50 0 -16 2 -5 4 22 4 28 0 40 -2 28 -4z
m-1955 -10 c-10 -2 -26 -2 -35 0 -10 3 -2 5 17 5 19 0 27 -2 18 -5z m1567 -3
c-16 -4 -73 -7 -125 -7 l-95 1 100 6 c149 9 156 9 120 0z m103 3 c-10 -2 -28
-2 -40 0 -13 2 -5 4 17 4 22 1 32 -1 23 -4z m100 0 c-10 -2 -26 -2 -35 0 -10
3 -2 5 17 5 19 0 27 -2 18 -5z m59 1 c-3 -3 -12 -4 -19 -1 -8 3 -5 6 6 6 11 1
17 -2 13 -5z m-1499 -11 c-21 -2 -55 -2 -75 0 -21 2 -4 4 37 4 41 0 58 -2 38
-4z m115 0 c-13 -2 -35 -2 -50 0 -16 2 -5 4 22 4 28 0 40 -2 28 -4z m294 1
c-3 -3 -12 -4 -19 -1 -8 3 -5 6 6 6 11 1 17 -2 13 -5z m590 0 c-3 -3 -12 -4
-19 -1 -8 3 -5 6 6 6 11 1 17 -2 13 -5z m-474 -11 c-7 -2 -21 -2 -30 0 -10 3
-4 5 12 5 17 0 24 -2 18 -5z m1297 -47 c0 -3 -4 -8 -10 -11 -5 -3 -10 -1 -10
4 0 6 5 11 10 11 6 0 10 -2 10 -4z m40 -6 c0 -5 -7 -7 -15 -4 -8 4 -15 8 -15
10 0 2 7 4 15 4 8 0 15 -4 15 -10z"/>
<path d="M4115 2585 c-165 -42 -148 -45 27 -4 110 25 136 29 153 18 18 -11 19
-11 6 4 -18 22 -33 21 -186 -18z"/>
<path d="M3920 2540 c-20 -6 -21 -8 -5 -8 11 0 31 4 45 8 20 6 21 8 5 8 -11 0
-31 -4 -45 -8z"/>
<path d="M3709 2953 c-13 -16 -12 -17 4 -4 16 13 21 21 13 21 -2 0 -10 -8 -17
-17z"/>
<path d="M3430 2796 c0 -2 8 -10 18 -17 15 -13 16 -12 3 4 -13 16 -21 21 -21
13z"/>
<path d="M2761 2822 c-1 -7 -16 -20 -35 -28 -28 -14 -33 -21 -30 -46 5 -42 10
-46 49 -46 20 0 43 -6 51 -13 14 -11 19 -10 35 10 11 13 19 31 19 41 0 25 -38
70 -60 70 -10 0 -21 6 -23 13 -4 9 -6 9 -6 -1z m59 -42 c22 -22 25 -42 10 -71
-9 -15 -15 -17 -30 -9 -10 5 -34 12 -52 14 -28 3 -33 7 -36 33 -2 23 2 32 20
41 35 17 66 14 88 -8z"/>
<path d="M2800 2720 c0 -5 5 -10 10 -10 6 0 10 5 10 10 0 6 -4 10 -10 10 -5 0
-10 -4 -10 -10z"/>
<path d="M2680 2708 c0 -19 35 -42 53 -34 7 2 5 5 -5 5 -9 1 -24 11 -32 23
-13 18 -16 19 -16 6z"/>
<path d="M2929 2626 c14 -14 27 -26 29 -26 10 0 -26 44 -39 48 -8 3 -3 -7 10
-22z"/>
<path d="M3615 2680 c-3 -5 -1 -10 4 -10 6 0 11 5 11 10 0 6 -2 10 -4 10 -3 0
-8 -4 -11 -10z"/>
<path d="M5750 2490 c0 -5 5 -10 10 -10 6 0 10 5 10 10 0 6 -4 10 -10 10 -5 0
-10 -4 -10 -10z"/>
<path d="M5402 1970 c0 -14 2 -19 5 -12 2 6 2 18 0 25 -3 6 -5 1 -5 -13z"/>
<path d="M5410 1914 c0 -14 4 -23 10 -19 6 3 10 15 10 26 0 10 -4 19 -10 19
-5 0 -10 -12 -10 -26z"/>
<path d="M459 2404 c-24 -25 -24 -26 -5 -40 32 -23 56 -18 56 12 0 14 -6 32
-14 39 -11 12 -17 10 -37 -11z"/>
<path d="M460 1796 c0 -2 8 -10 18 -17 15 -13 16 -12 3 4 -13 16 -21 21 -21
13z"/>
<path d="M517 1749 c6 -6 17 -11 26 -13 8 -1 22 -8 31 -15 11 -9 16 -10 16 -2
0 6 -4 11 -10 11 -5 0 -7 7 -4 15 5 12 -2 15 -32 15 -27 0 -35 -3 -27 -11z"/>
<path d="M1825 1631 c-69 -31 -125 -113 -125 -183 0 -21 -112 -48 -199 -48
-68 0 -77 -11 -28 -37 l32 -17 -47 -10 c-27 -5 -48 -13 -48 -17 0 -17 119 -31
223 -26 99 4 108 3 118 -15 6 -11 31 -33 57 -49 42 -27 53 -29 139 -29 88 0
94 1 126 30 19 17 41 30 48 30 8 0 26 8 42 18 27 18 28 18 87 -11 94 -47 274
-52 188 -6 l-23 12 28 10 c38 12 34 23 -14 31 -22 4 -72 22 -110 42 l-70 35 6
44 c12 77 -28 148 -100 175 -36 14 -204 40 -254 40 -20 0 -54 -9 -76 -19z
m132 -12 c107 -40 158 -190 104 -303 -32 -65 -80 -96 -149 -96 -59 0 -94 15
-134 57 -95 100 -69 287 47 339 37 16 94 18 132 3z m151 -83 c26 -39 32 -58
32 -100 0 -79 -18 -126 -65 -173 -49 -50 -84 -59 -38 -10 47 49 64 92 65 160
1 72 -16 118 -63 172 l-34 39 35 -20 c19 -11 50 -41 68 -68z m83 -133 c13 -16
12 -17 -3 -4 -10 7 -18 15 -18 17 0 8 8 3 21 -13z m-492 -15 c0 -13 -3 -17 -6
-10 -2 6 -12 12 -21 13 -14 0 -13 2 3 9 11 5 21 9 23 9 1 1 2 -9 1 -21z m-119
-12 c0 -2 -9 -6 -20 -9 -11 -3 -18 -1 -14 4 5 9 34 13 34 5z m685 -24 c-3 -3
-11 0 -18 7 -9 10 -8 11 6 5 10 -3 15 -9 12 -12z m-625 -36 c8 -2 -13 -4 -47
-5 -35 0 -63 2 -63 7 0 7 76 5 110 -2z m63 7 c-7 -2 -19 -2 -25 0 -7 3 -2 5
12 5 14 0 19 -2 13 -5z m642 -61 c-3 -3 -11 0 -18 7 -9 10 -8 11 6 5 10 -3 15
-9 12 -12z m52 -8 c-3 -3 -12 -4 -19 -1 -8 3 -5 6 6 6 11 1 17 -2 13 -5z"/>
<path d="M4548 1610 c-130 -13 -192 -69 -186 -167 l3 -53 -62 -25 c-34 -13
-82 -27 -105 -31 -71 -10 -76 -14 -44 -31 l30 -16 -29 -14 c-72 -38 82 -46
188 -9 l67 23 35 -24 c18 -13 38 -23 44 -23 5 0 16 -8 23 -17 25 -34 45 -43
121 -53 94 -13 138 -3 194 45 l41 35 64 -15 c92 -21 258 -18 258 5 0 4 -21 13
-47 20 l-48 12 38 16 c20 9 37 19 37 23 0 3 -33 11 -74 17 -41 6 -98 20 -128
30 -53 18 -53 18 -59 68 -4 28 -12 61 -19 75 -21 40 -72 88 -104 98 -48 15
-153 19 -238 11z m229 -25 c78 -33 113 -91 113 -187 0 -176 -177 -280 -297
-175 -46 41 -63 82 -63 154 1 98 53 179 136 208 51 18 67 18 111 0z m-190 -25
c-84 -73 -103 -225 -39 -315 17 -25 29 -45 26 -45 -37 0 -92 86 -100 156 -9
75 11 132 66 186 26 27 55 48 64 48 12 0 7 -9 -17 -30z m-147 -160 c0 -5 -5
-10 -11 -10 -5 0 -7 5 -4 10 3 6 8 10 11 10 2 0 4 -4 4 -10z m10 -43 c0 -2
-10 -12 -22 -23 l-23 -19 19 23 c18 21 26 27 26 19z m510 -25 c3 -2 -5 -1 -17
2 -15 5 -25 1 -33 -11 -11 -17 -11 -17 -6 0 3 10 6 23 6 28 0 9 36 -5 50 -19z
m-665 -2 c-3 -5 -14 -10 -23 -9 -14 0 -13 2 3 9 27 11 27 11 20 0z m772 -26
c-3 -3 -12 -4 -19 -1 -8 3 -5 6 6 6 11 1 17 -2 13 -5z m-730 -20 c-3 -3 -12
-4 -19 -1 -8 3 -5 6 6 6 11 1 17 -2 13 -5z m-93 -16 c-3 -4 -17 -8 -32 -8 -17
0 -22 3 -15 8 16 10 53 10 47 0z m856 -20 c8 -3 -10 -5 -40 -5 -30 0 -43 2
-27 4 15 3 25 9 21 15 -4 7 0 7 12 0 11 -5 26 -12 34 -14z m-107 5 c-7 -2 -21
-2 -30 0 -10 3 -4 5 12 5 17 0 24 -2 18 -5z"/>
</g>
</svg>
